<svg xmlns="http://www.w3.org/2000/svg" aria-hidden="true" style="position:absolute;width:0;height:0;overflow:hidden">
  <defs>

  <!-- section-seryices -->
    <symbol id="seryices-01" viewBox="0 0 32 32">
      <path d="M28.392 8.35h-3.38V4.97a2.257 2.257 0 0 0-2.253-2.253H9.24A2.257 2.257 0 0 0 6.987 4.97v3.38h-3.38a3.38 3.38 0 0 0-3.38 3.38v15.772a2.257 2.257 0 0 0 2.253 2.253h27.038a2.257 2.257 0 0 0 2.253-2.253V11.73a3.38 3.38 0 0 0-3.38-3.38zM9.241 4.971H22.76v3.38H9.241v-3.38zm20.278 22.531H2.481V17.363h9.013v5.633h9.013v-5.633h9.013v10.139zM13.747 17.363h4.506v3.38h-4.506v-3.38zM2.481 15.11v-3.38a1.13 1.13 0 0 1 1.127-1.127h24.785a1.13 1.13 0 0 1 1.127 1.127v3.38H2.482z"/>
    </symbol>
    <symbol id="seryices-02" viewBox="0 0 32 32">
        <path style="fill: var(--color1, #0d5c63)" opacity="0.15" d="M29.1 9.167h-26.2c-0.012 0-0.020 0.008-0.020 0.020v3.604c0 2.363 1.96 4.279 4.372 4.279 1.628 0 3.048-0.869 3.804-2.161 0.116-0.202 0.336-0.328 0.572-0.328s0.452 0.126 0.572 0.328c0.752 1.292 2.172 2.161 3.8 2.161 1.632 0 3.056-0.873 3.804-2.169 0.116-0.198 0.328-0.32 0.556-0.32h0.024c0.232 0 0.44 0.122 0.556 0.32 0.752 1.296 2.176 2.169 3.808 2.169 2.412 0 4.372-1.916 4.372-4.279v-3.604c0-0.012-0.008-0.020-0.020-0.020z"></path>
        <path style="fill: var(--color1, #0d5c63)" d="M30.8 6.326v-5.061c0-0.699-0.572-1.264-1.28-1.264h-27.040c-0.708 0-1.28 0.565-1.28 1.264v5.061c-0.668 0.040-1.2 0.589-1.2 1.26v5.204c-0.003 0.956 0.193 1.903 0.576 2.782 0.172 0.403 0.384 0.782 0.624 1.142v13.632c0 0.695 0.572 1.264 1.28 1.264h27.040c0.708 0 1.28-0.565 1.28-1.264v-13.632c0.244-0.36 0.453-0.743 0.624-1.142 0.38-0.881 0.576-1.818 0.576-2.782v-5.204c0-0.672-0.532-1.221-1.2-1.26zM4.080 2.845h23.84v3.477h-23.84v-3.477zM18.56 28.769h-5.12v-4.113h5.12v4.113zM27.936 28.769h-6.816v-5.378c0-0.699-0.572-1.264-1.28-1.264h-7.68c-0.708 0-1.28 0.565-1.28 1.264v5.378h-6.8v-9.57c0.116 0.055 0.236 0.111 0.36 0.158 0.892 0.371 1.84 0.557 2.816 0.557s1.92-0.186 2.816-0.557c0.552-0.229 1.072-0.522 1.548-0.873 0.008-0.004 0.016-0.004 0.024 0 0.477 0.353 0.997 0.646 1.548 0.873 0.892 0.371 1.84 0.557 2.816 0.557s1.92-0.186 2.816-0.557c0.552-0.229 1.072-0.522 1.548-0.873 0.008-0.004 0.016-0.004 0.024 0 0.477 0.353 0.997 0.646 1.548 0.873 0.892 0.371 1.84 0.557 2.816 0.557s1.92-0.186 2.816-0.557c0.12-0.051 0.24-0.103 0.36-0.158v9.57zM29.12 12.79c0 2.363-1.96 4.279-4.372 4.279-1.632 0-3.056-0.873-3.808-2.169-0.116-0.198-0.324-0.32-0.556-0.32h-0.024c-0.228 0-0.44 0.122-0.556 0.32-0.384 0.661-0.938 1.21-1.606 1.591s-1.427 0.58-2.198 0.578c-1.628 0-3.048-0.869-3.8-2.161-0.12-0.201-0.336-0.328-0.572-0.328s-0.456 0.126-0.572 0.328c-0.386 0.659-0.941 1.205-1.609 1.585s-1.425 0.578-2.195 0.577c-2.412 0-4.372-1.916-4.372-4.279v-3.603c0-0.012 0.008-0.020 0.020-0.020h26.2c0.012 0 0.020 0.008 0.020 0.020v3.603z"></path>
    </symbol>
    <symbol id="seryices-03" viewBox="0 0 32 32">
      <path d="M19.428 9.083h7.999v2.297h-7.999V9.083zM19.428 14.825h7.999v2.297h-7.999v-2.297zM19.428 20.567h7.999v2.297h-7.999v-2.297z"/>
      <path d="M29.712 3.341H2.288c-.606.001-1.187.243-1.615.673S.004 5.028.003 5.637v20.672c.001.609.242 1.193.67 1.623s1.009.673 1.615.673h27.424c.606-.001 1.187-.243 1.615-.674s.669-1.014.67-1.623V5.636c-.001-.609-.242-1.193-.67-1.623s-1.009-.673-1.615-.673zM2.288 5.638h12.569V26.31H2.288V5.638zM17.142 26.31V5.638h12.569l.002 20.672H17.142z"/>
    </symbol>

<!-- section-advantages -->
    <svg xmlns="http://www.w3.org/2000/svg" aria-hidden="true" style="position:absolute;width:0;height:0;overflow:hidden">
  <defs>
    <symbol id="advantages-01" viewBox="0 0 33 32">
      <path d="M16.56 15.202c2.869 0 5.101-2.33 5.101-5.19s-2.338-5.084-5.208-5.084-5.101 2.33-5.101 5.084c0 2.86 2.338 5.19 5.208 5.19zm-.106-8.156c.106 0 .106 0 0 0 1.7 0 3.082 1.377 3.082 3.072s-1.382 2.966-3.082 2.966-2.976-1.377-2.976-2.966c0-1.695 1.382-3.072 2.976-3.072zM32.289 14.566c-2.019-1.801-4.676-2.754-7.439-2.648H24c-.213.847-.531 1.589-.956 2.224.638-.106 1.169-.106 1.807-.106 2.019-.106 4.039.53 5.633 1.695v7.626h2.126v-8.474l-.319-.318zM22.406 5.139c.531-1.271 2.019-1.907 3.401-1.377 1.275.53 1.913 2.012 1.382 3.389-.425.953-1.382 1.589-2.338 1.589-.213 0-.531 0-.744-.106.106.53.106 1.059.106 1.483v.636c.213 0 .425.106.638.106 2.657 0 4.782-2.118 4.782-4.66 0-2.648-2.126-4.766-4.676-4.766-1.7 0-3.188.847-4.038 2.33.531.318 1.063.741 1.488 1.377zM10.29 14.248c-.425-.636-.744-1.377-.956-2.224h-.85a10.956 10.956 0 0 0-7.439 2.542l-.319.318v8.474h2.126v-7.626c1.7-1.165 3.613-1.801 5.633-1.695.638 0 1.275.106 1.807.212zM8.483 10.753c.213 0 .425 0 .638-.106v-.635c0-.53 0-1.059.106-1.483-.213.106-.531.106-.744.106-1.382 0-2.551-1.165-2.551-2.542s1.169-2.542 2.551-2.542c1.063 0 2.019.636 2.444 1.589.425-.53 1.063-1.059 1.594-1.483C11.139 1.433 8.27.691 6.038 2.068S3.062 6.305 4.444 8.529c.85 1.377 2.338 2.224 4.038 2.224zM25.275 20.921l-.213-.318c-2.126-2.33-5.101-3.707-8.29-3.601-3.188-.106-6.27 1.271-8.396 3.601l-.213.318v8.05c0 .953.744 1.801 1.807 1.801h13.603c.956 0 1.807-.847 1.807-1.801v-8.05h-.106zm-2.125 7.732H10.291v-6.991c1.7-1.695 4.038-2.542 6.483-2.542 2.338-.106 4.676.847 6.377 2.542v6.991z"/>
    </symbol>
    <symbol id="advantages-02" viewBox="0 0 33 32">
      <path d="M29.434 14.855a3.147 3.147 0 0 0-1.122.216l-3.827-3.19c.094-.348.161-.708.161-1.089 0-2.252-1.778-4.062-3.99-4.062s-3.99 1.81-3.99 4.062c0 .644.16 1.243.418 1.783l-4.642 5.587a3.327 3.327 0 0 0-.563-.057c-.286 0-.555.049-.817.12l-4.09-4.165a3.14 3.14 0 0 0 .12-.83c0-1.8-1.423-3.25-3.192-3.25S.708 11.429.708 13.23c0 1.8 1.423 3.25 3.192 3.25.286 0 .555-.049.817-.12l4.09 4.165c-.077.27-.117.549-.12.83 0 1.8 1.424 3.25 3.192 3.25s3.192-1.449 3.192-3.25c0-.385-.077-.747-.196-1.09l4.649-5.593c.362.107.737.184 1.133.184.63-.004 1.25-.16 1.808-.457l3.828 3.19c-.03.171-.047.343-.051.517 0 1.8 1.424 3.25 3.192 3.25s3.192-1.449 3.192-3.25c0-1.8-1.423-3.25-3.192-3.25z"/>
    </symbol>
    <symbol id="advantages-03" viewBox="0 0 33 32">
      <path d="M10.709 22.663c-.541-.543-.259-.39-1.563-.741-.592-.159-1.112-.466-1.582-.832l-2.823 6.952a1 1 0 0 0 .96 1.377l3.279-.126 2.255 2.393a.994.994 0 0 0 1.645-.31l3.239-7.976c-.675.377-1.423.599-2.197.599a4.5 4.5 0 0 1-3.211-1.336zm17.776 5.38-2.823-6.952c-.47.367-.991.673-1.582.832-1.311.353-1.024.199-1.563.741A4.506 4.506 0 0 1 19.305 24c-.774 0-1.523-.222-2.197-.599l3.239 7.976a.994.994 0 0 0 1.645.31l2.256-2.393 3.279.126a1 1 0 0 0 .96-1.377zm-7.454-6.794c.951-.972 1.06-.888 2.414-1.259a2.535 2.535 0 0 0 1.771-1.811c.465-1.775.345-1.561 1.615-2.859a2.6 2.6 0 0 0 .648-2.474c-.465-1.774-.465-1.526 0-3.302a2.604 2.604 0 0 0-.648-2.474c-1.27-1.299-1.149-1.085-1.615-2.859A2.533 2.533 0 0 0 23.445 2.4c-1.735-.476-1.526-.351-2.797-1.651a2.468 2.468 0 0 0-2.42-.663c-1.734.475-1.492.476-3.229 0a2.468 2.468 0 0 0-2.42.663c-1.27 1.299-1.061 1.175-2.796 1.651a2.535 2.535 0 0 0-1.771 1.811c-.465 1.774-.345 1.561-1.615 2.859a2.6 2.6 0 0 0-.648 2.474c.465 1.773.465 1.525 0 3.301a2.604 2.604 0 0 0 .648 2.474c1.27 1.299 1.149 1.084 1.615 2.859a2.533 2.533 0 0 0 1.771 1.811c1.393.381 1.496.321 2.413 1.259a2.464 2.464 0 0 0 3.095.364 2.465 2.465 0 0 1 2.646 0 2.463 2.463 0 0 0 3.094-.364zM10.743 10.996c0-3.314 2.628-6.001 5.87-6.001s5.87 2.687 5.87 6.001c0 3.314-2.628 6.001-5.87 6.001s-5.87-2.687-5.87-6.001z"/>
    </symbol>
    <symbol id="advantages-04" viewBox="0 0 33 32">
      <path d="M29.059 8.35h-3.38V4.97a2.257 2.257 0 0 0-2.253-2.253H9.907A2.257 2.257 0 0 0 7.654 4.97v3.38h-3.38a3.38 3.38 0 0 0-3.38 3.38v15.772a2.257 2.257 0 0 0 2.253 2.253h27.038a2.257 2.257 0 0 0 2.253-2.253V11.73a3.38 3.38 0 0 0-3.38-3.38zM9.907 4.971h13.519v3.38H9.907v-3.38zm20.279 22.531H3.148V17.363h9.013v5.633h9.013v-5.633h9.013v10.139zM14.414 17.363h4.506v3.38h-4.506v-3.38zM3.148 15.11v-3.38a1.13 1.13 0 0 1 1.127-1.127H29.06a1.13 1.13 0 0 1 1.127 1.127v3.38H3.149z"/>
    </symbol>
  </defs>
</svg>
  </defs>
</svg>


